# xmcd CD database file generated by RipIT.
#
# Track frame offsets:
#	150
#	39448
#	55558
#	71346
#	89525
#	105516
#	122513
#	139566
#	188310
#	203893
#	222533
#	238777
#	268892
#	295907
#	311153
#
# Disc length: 4360 seconds
#
# Revision: 2
# Processed by: cddbd v1.5.1PL2 Copyright (c) Steve Scherf et al.
# Submitted via: RipIT 3.4 www.suwald.com/ripit/ripit.html at Wed Feb 8 09:14:20 CET 2006.
#
DISCID=d911060f
DTITLE=Faithless - Special
DYEAR=2005
DGENRE=Trance
TTITLE0=Insomnia
TTITLE1=Weapons Of Mass Destruction
TTITLE2=God Is A DJ
TTITLE3=Lulaby
TTITLE4=Family Back
TTITLE5=Become One
TTITLE6=Flowerstand Man
TTITLE7=Insomnia Rmx
TTITLE8=Don't Leave Home
TTITLE9=Family Back Rmx
TTITLE10=Love To Know You
TTITLE11=Tarantula
TTITLE12=Rasta
TTITLE13=To Be Carefull
TTITLE14=Want More
EXTD=
EXTT0=
EXTT1=
EXTT2=
EXTT3=
EXTT4=
EXTT5=
EXTT6=
EXTT7=
EXTT8=
EXTT9=
EXTT10=
EXTT11=
EXTT12=
EXTT13=
EXTT14=
PLAYORDER=
